# xmcd CD database file
#
# Track frame offsets:
#	150
#	25157
#	45861
#	65539
#	87933
#	106222
#	121161
#	134283
#	151487
#	170763
#	187622
#	207694
#	224205
#	243719
#
# Disc length: 3537 seconds
#
# Revision: 0
# Processed by: cddbd v1.4PL0 Copyright (c) Steve Scherf et al.
# Submitted via: CDex 1.50
#
DISCID=c70dcf0e
DTITLE=Mojo Mamas - Mojo Mamas
DYEAR=2000
DGENRE=Jazz
TTITLE0=Grana Louise - Good Woman Go Bad
TTITLE1=Grana Louise - Somebody Done Told Me
TTITLE2=Shirley Johnson - Paycheck In My Poscket
TTITLE3=Shirley Johnson - Prisoner of Love
TTITLE4=Big Time Sarah - Gonna Have a Murder On Your Hands
TTITLE5=Big Time Sarah - Love Forever
TTITLE6=Zora Young - Daughter Of A Son Of A Gun
TTITLE7=Gloria Shannon - One Eyed Man
TTITLE8=Gloria Shannon - Baby Wont You Please Come Home
TTITLE9=Maggie Burrell - Pride and Joy
TTITLE10=Mary Lane - I Wonder Why
TTITLE11=Mary Line - Coming Home
TTITLE12=Par Scott - Today I sing The Blues
TTITLE13=Pat Scott - Lets Do It Again
EXTD=YEAR: 2000
EXTT0=
EXTT1=
EXTT2=
EXTT3=
EXTT4=
EXTT5=
EXTT6=
EXTT7=
EXTT8=
EXTT9=
EXTT10=
EXTT11=
EXTT12=
EXTT13=
PLAYORDER=
